<?xml version="1.0" encoding="UTF-8"?>
<!DOCTYPE svg PUBLIC "-//W3C//DTD SVG 1.1//EN" "http://www.w3.org/Graphics/SVG/1.1/DTD/svg11.dtd">
<svg xmlns="http://www.w3.org/2000/svg" version="1.1" width="172px" height="172px" style="shape-rendering:geometricPrecision; text-rendering:geometricPrecision; image-rendering:optimizeQuality; fill-rule:evenodd; clip-rule:evenodd" xmlns:xlink="http://www.w3.org/1999/xlink">
<g><path style="opacity:0.832" fill="#646465" d="M 73.5,-0.5 C 81.5,-0.5 89.5,-0.5 97.5,-0.5C 129.789,5.26748 152.622,23.2675 166,53.5C 168.419,60.1419 170.252,66.8086 171.5,73.5C 171.5,81.5 171.5,89.5 171.5,97.5C 165.733,129.789 147.733,152.622 117.5,166C 110.858,168.419 104.191,170.252 97.5,171.5C 89.5,171.5 81.5,171.5 73.5,171.5C 41.211,165.733 18.3776,147.733 5,117.5C 2.58104,110.858 0.747702,104.191 -0.5,97.5C -0.5,89.5 -0.5,81.5 -0.5,73.5C 5.26748,41.211 23.2675,18.3776 53.5,5C 60.1419,2.58104 66.8086,0.747702 73.5,-0.5 Z M 73.5,4.5 C 106.712,1.38786 133.212,13.0545 153,39.5C 171,70.1667 171,100.833 153,131.5C 126.451,164.85 92.9509,174.35 52.5,160C 15.4264,140.689 -0.0736409,110.189 6,68.5C 15.0906,32.9068 37.5906,11.5735 73.5,4.5 Z M 77.5,61.5 C 78.5735,62.2506 78.7401,63.2506 78,64.5C 76.2716,63.6477 76.105,62.6477 77.5,61.5 Z M 91.5,61.5 C 93.7602,62.2376 93.9269,63.2376 92,64.5C 91.5172,63.552 91.3505,62.552 91.5,61.5 Z M 82.5,67.5 C 83.8333,67.5 85.1667,67.5 86.5,67.5C 86.5,72.8333 86.5,78.1667 86.5,83.5C 85.5,83.5 84.5,83.5 83.5,83.5C 83.6079,78.1301 83.2745,72.7968 82.5,67.5 Z M 82.5,87.5 C 84.1667,87.5 85.8333,87.5 87.5,87.5C 85.8333,92.8333 84.1667,92.8333 82.5,87.5 Z M 93.5,120.5 C 102.167,120.5 110.833,120.5 119.5,120.5C 119.5,122.5 119.5,124.5 119.5,126.5C 108.813,126.832 98.1459,126.499 87.5,125.5C 88.9599,123.028 90.9599,121.361 93.5,120.5 Z"/></g>
<g><path style="opacity:0.881" fill="#e21e23" d="M 83.5,31.5 C 102.246,33.657 109.746,43.9903 106,62.5C 102.395,69.1002 98.3952,75.4336 94,81.5C 92.7969,85.1097 91.7969,88.7763 91,92.5C 89.3523,94.0284 87.3523,94.6951 85,94.5C 82.6477,94.6951 80.6477,94.0284 79,92.5C 78,88.8333 77,85.1667 76,81.5C 72.4186,76.672 69.0852,71.672 66,66.5C 64.0924,63.7935 63.259,60.7935 63.5,57.5C 64.8221,57.33 65.9887,57.6634 67,58.5C 70.5676,65.7374 74.5676,72.7374 79,79.5C 79.6667,76.1667 79.6667,72.8333 79,69.5C 77.1164,68.0231 75.1164,66.6898 73,65.5C 71.6903,61.2996 73.1903,58.6329 77.5,57.5C 81.1477,58.4732 82.8143,60.8065 82.5,64.5C 84.1667,64.5 85.8333,64.5 87.5,64.5C 87.6006,58.7113 90.2672,56.8779 95.5,59C 98.6022,64.6284 96.9355,67.4618 90.5,67.5C 90.3345,71.5138 90.5012,75.5138 91,79.5C 95.4324,72.7374 99.4324,65.7374 103,58.5C 104.132,45.2942 98.1315,37.6275 85,35.5C 74.3078,37.191 67.8078,43.3577 65.5,54C 63.7627,54.6123 62.7627,53.9457 62.5,52C 64.7868,40.2118 71.7868,33.3785 83.5,31.5 Z M 77.5,61.5 C 76.105,62.6477 76.2716,63.6477 78,64.5C 78.7401,63.2506 78.5735,62.2506 77.5,61.5 Z M 91.5,61.5 C 91.3505,62.552 91.5172,63.552 92,64.5C 93.9269,63.2376 93.7602,62.2376 91.5,61.5 Z M 82.5,67.5 C 83.2745,72.7968 83.6079,78.1301 83.5,83.5C 84.5,83.5 85.5,83.5 86.5,83.5C 86.5,78.1667 86.5,72.8333 86.5,67.5C 85.1667,67.5 83.8333,67.5 82.5,67.5 Z M 82.5,87.5 C 84.1667,92.8333 85.8333,92.8333 87.5,87.5C 85.8333,87.5 84.1667,87.5 82.5,87.5 Z"/></g>
<g><path style="opacity:0.848" fill="#e21e24" d="M 53.5,37.5 C 57.6383,37.9732 59.6383,40.3065 59.5,44.5C 56.7374,44.2562 54.5707,42.9229 53,40.5C 52.5304,39.4232 52.6971,38.4232 53.5,37.5 Z"/></g>
<g><path style="opacity:0.848" fill="#e21e24" d="M 113.5,37.5 C 115.346,37.2222 116.68,37.8888 117.5,39.5C 115.957,42.3905 113.624,44.0571 110.5,44.5C 110.15,41.5466 111.15,39.2133 113.5,37.5 Z"/></g>
<g><path style="opacity:0.844" fill="#e21e23" d="M 56.5,50.5 C 57.5,50.5 58.5,50.5 59.5,50.5C 59.0668,54.5941 56.7335,56.5941 52.5,56.5C 52.3505,55.448 52.5172,54.448 53,53.5C 54.5185,52.8366 55.6851,51.8366 56.5,50.5 Z"/></g>
<g><path style="opacity:0.849" fill="#e21e23" d="M 110.5,50.5 C 113.683,50.929 116.016,52.5957 117.5,55.5C 115.276,56.7801 113.276,56.4468 111.5,54.5C 110.571,53.3112 110.238,51.9778 110.5,50.5 Z"/></g>
<g><path style="opacity:0.8" fill="#646466" d="M 48.5,66.5 C 53.8333,66.5 59.1667,66.5 64.5,66.5C 64.67,67.8221 64.3366,68.9887 63.5,70C 59.1794,70.499 54.8461,70.6657 50.5,70.5C 50.5,86.1667 50.5,101.833 50.5,117.5C 54.8333,117.5 59.1667,117.5 63.5,117.5C 63.5,118.5 63.5,119.5 63.5,120.5C 59.1667,120.5 54.8333,120.5 50.5,120.5C 50.5,122.5 50.5,124.5 50.5,126.5C 61.1719,126.667 71.8385,126.5 82.5,126C 81.7433,124.488 80.7433,123.154 79.5,122C 75.2695,120.71 70.9362,120.21 66.5,120.5C 66.5,119.5 66.5,118.5 66.5,117.5C 71.1785,117.334 75.8452,117.501 80.5,118C 81.0253,118.692 81.6919,119.192 82.5,119.5C 83.4967,112.866 83.83,106.2 83.5,99.5C 84.5,99.5 85.5,99.5 86.5,99.5C 86.17,106.2 86.5033,112.866 87.5,119.5C 88.3081,119.192 88.9747,118.692 89.5,118C 99.4944,117.5 109.494,117.334 119.5,117.5C 119.5,109.5 119.5,101.5 119.5,93.5C 120.822,93.33 121.989,93.6634 123,94.5C 123.667,105.5 123.667,116.5 123,127.5C 122.626,128.416 122.126,129.25 121.5,130C 97.1667,130.667 72.8333,130.667 48.5,130C 47.8742,129.25 47.3742,128.416 47,127.5C 46.5001,109.836 46.3334,92.1698 46.5,74.5C 44.5,74.5 42.5,74.5 40.5,74.5C 40.038,93.5682 40.538,112.568 42,131.5C 42.7504,132.126 43.5838,132.626 44.5,133C 71.5,133.667 98.5,133.667 125.5,133C 126.333,132.167 127.167,131.333 128,130.5C 128.5,111.836 128.667,93.1696 128.5,74.5C 126.833,74.5 125.167,74.5 123.5,74.5C 123.666,79.5111 123.499,84.5111 123,89.5C 121.989,90.3366 120.822,90.67 119.5,90.5C 119.5,83.8333 119.5,77.1667 119.5,70.5C 115.154,70.6657 110.821,70.499 106.5,70C 105.663,68.9887 105.33,67.8221 105.5,66.5C 110.844,66.334 116.177,66.5006 121.5,67C 122.167,68 122.833,69 123.5,70C 126.426,70.2178 129.26,70.7178 132,71.5C 132.667,91.5 132.667,111.5 132,131.5C 130.833,134 129,135.833 126.5,137C 98.8333,137.667 71.1667,137.667 43.5,137C 41.0607,136.226 39.2273,134.726 38,132.5C 36.3828,112.885 36.0495,93.2184 37,73.5C 37.3742,72.5838 37.8742,71.7504 38.5,71C 41.1667,70.6667 43.8333,70.3333 46.5,70C 47.305,68.8873 47.9717,67.7206 48.5,66.5 Z M 82.5,67.5 C 83.2745,72.7968 83.6079,78.1301 83.5,83.5C 84.5,83.5 85.5,83.5 86.5,83.5C 86.5,78.1667 86.5,72.8333 86.5,67.5C 85.1667,67.5 83.8333,67.5 82.5,67.5 Z M 82.5,87.5 C 84.1667,92.8333 85.8333,92.8333 87.5,87.5C 85.8333,87.5 84.1667,87.5 82.5,87.5 Z M 93.5,120.5 C 90.9599,121.361 88.9599,123.028 87.5,125.5C 98.1459,126.499 108.813,126.832 119.5,126.5C 119.5,124.5 119.5,122.5 119.5,120.5C 110.833,120.5 102.167,120.5 93.5,120.5 Z"/></g>
<g><path style="opacity:0.753" fill="#e21d24" d="M 53.5,83.5 C 59.1764,83.3339 64.8431,83.5006 70.5,84C 71.3366,85.0113 71.67,86.1779 71.5,87.5C 65.4908,87.6662 59.4908,87.4995 53.5,87C 52.3157,85.8545 52.3157,84.6879 53.5,83.5 Z"/></g>
<g><path style="opacity:0.753" fill="#e21d24" d="M 99.5,83.5 C 105.176,83.3339 110.843,83.5006 116.5,84C 117.833,85 117.833,86 116.5,87C 110.509,87.4995 104.509,87.6662 98.5,87.5C 98.4326,86.0413 98.7659,84.7079 99.5,83.5 Z"/></g>
<g><path style="opacity:0.731" fill="#e31e23" d="M 56.5,91.5 C 62.8421,91.3338 69.1754,91.5005 75.5,92C 76.8333,93 76.8333,94 75.5,95C 68.8417,95.4996 62.175,95.6663 55.5,95.5C 55.4326,94.0413 55.7659,92.7079 56.5,91.5 Z"/></g>
<g><path style="opacity:0.731" fill="#e31e24" d="M 94.5,91.5 C 100.842,91.3338 107.175,91.5005 113.5,92C 114.833,93 114.833,94 113.5,95C 107.167,95.6667 100.833,95.6667 94.5,95C 93.3157,93.8545 93.3157,92.6879 94.5,91.5 Z"/></g>
<g><path style="opacity:0.979" fill="#e31e24" d="M 55.5,99.5 C 62.5,99.5 69.5,99.5 76.5,99.5C 76.5,100.5 76.5,101.5 76.5,102.5C 69.5,102.5 62.5,102.5 55.5,102.5C 55.5,101.5 55.5,100.5 55.5,99.5 Z"/></g>
<g><path style="opacity:0.979" fill="#e31e24" d="M 93.5,99.5 C 100.5,99.5 107.5,99.5 114.5,99.5C 114.5,100.5 114.5,101.5 114.5,102.5C 107.5,102.5 100.5,102.5 93.5,102.5C 93.5,101.5 93.5,100.5 93.5,99.5 Z"/></g>
<g><path style="opacity:0.731" fill="#e31e23" d="M 56.5,106.5 C 62.8421,106.334 69.1754,106.5 75.5,107C 76.8333,108 76.8333,109 75.5,110C 68.8417,110.5 62.175,110.666 55.5,110.5C 55.4326,109.041 55.7659,107.708 56.5,106.5 Z"/></g>
<g><path style="opacity:0.731" fill="#e31e24" d="M 94.5,106.5 C 100.842,106.334 107.175,106.5 113.5,107C 114.833,108 114.833,109 113.5,110C 107.167,110.667 100.833,110.667 94.5,110C 93.3157,108.855 93.3157,107.688 94.5,106.5 Z"/></g>
</svg>
