<svg xmlns="http://www.w3.org/2000/svg" xmlns:xlink="http://www.w3.org/1999/xlink" width="18.651" height="18.652" viewBox="0 0 18.651 18.652">
  <defs>
    <clipPath id="clip-path">
      <path id="Path_55734" data-name="Path 55734" d="M0-682.665H18.651v18.652H0Z" transform="translate(-0.171 682.494)" fill="#fff"/>
    </clipPath>
  </defs>
  <g id="mode" transform="translate(0.171 0.171)">
    <g id="Group_51738" data-name="Group 51738" clip-path="url(#clip-path)">
      <path id="Path_55730" data-name="Path 55730" d="M0,0,1.073,1.073,2.146,0" transform="translate(8.082 4.649)" fill="none" stroke="#fff" stroke-linecap="round" stroke-linejoin="round" stroke-width="0.9"/>
      <path id="Path_55731" data-name="Path 55731" d="M0-155.708V-160" transform="translate(9.155 165.722)" fill="none" stroke="#fff" stroke-linecap="round" stroke-linejoin="round" stroke-width="0.9"/>
      <path id="Path_55726" data-name="Path 55726" d="M-586.5,0h.715a.715.715,0,0,1,.715.715v10.8a.715.715,0,0,1-.715.715h-5.579a.358.358,0,0,0-.358.358.715.715,0,0,1-.715.715H-595.3a.715.715,0,0,1-.715-.715.358.358,0,0,0-.358-.358h-5.579a.715.715,0,0,1-.715-.715V.715A.715.715,0,0,1-601.95,0h.715" transform="translate(603.023 4.649)" fill="none" stroke="#fff" stroke-linecap="round" stroke-linejoin="round" stroke-width="0.9"/>
      <path id="Path_55727" data-name="Path 55727" d="M-116.5,0h-3.211V11.872h6.294a1.073,1.073,0,0,1,1.073,1.073,1.073,1.073,0,0,1,1.073-1.073h6.294V0h-3.211" transform="translate(121.494 3.576)" fill="none" stroke="#fff" stroke-linecap="round" stroke-linejoin="round" stroke-width="0.9"/>
      <path id="Path_55728" data-name="Path 55728" d="M0,0V5.793" transform="translate(9.155 12.159)" fill="none" stroke="#fff" stroke-linecap="round" stroke-linejoin="round" stroke-width="0.9"/>
      <path id="Path_55729" data-name="Path 55729" d="M-116.781,0H-120" transform="translate(127.545 10.013)" fill="none" stroke="#fff" stroke-linecap="round" stroke-linejoin="round" stroke-width="0.9"/>
      <path id="Path_55732" data-name="Path 55732" d="M-25.951-12.976a.358.358,0,0,1-.358.358.358.358,0,0,1-.358-.358.358.358,0,0,1,.358-.358.358.358,0,0,1,.358.358" transform="translate(35.464 13.334)" fill="#fff"/>
      <path id="Path_55733" data-name="Path 55733" d="M-98.347-.036a4.345,4.345,0,0,0-2.577,2.917,3.964,3.964,0,0,0-.08.392A4.284,4.284,0,0,0-98.883,7.68a1.038,1.038,0,0,1,.508.908v1.8A1.073,1.073,0,0,0-97.3,11.463h1.073a1.073,1.073,0,0,0,1.073-1.073v-1.8a1.034,1.034,0,0,1,.5-.906,4.282,4.282,0,0,0,2.179-3.73A4.3,4.3,0,0,0-92.61,2.88,4.3,4.3,0,0,0-95.185-.037" transform="translate(105.92 0.696)" fill="none" stroke="#fff" stroke-linecap="round" stroke-linejoin="round" stroke-width="0.9"/>
    </g>
  </g>
</svg>
