<svg xmlns="http://www.w3.org/2000/svg" xmlns:xlink="http://www.w3.org/1999/xlink" viewBox="0,0,255.98959,255.98959" width="64px" height="64px" fill-rule="nonzero"><g fill="#ff0000" fill-rule="nonzero" stroke="none" stroke-width="1" stroke-linecap="butt" stroke-linejoin="miter" stroke-miterlimit="10" stroke-dasharray="" stroke-dashoffset="0" font-family="none" font-weight="none" font-size="none" text-anchor="none" style="mix-blend-mode: normal"><g transform="scale(4,4)"><path d="M32.01563,2.11719c-0.45964,0 -0.91933,0.1575 -1.28906,0.46875l0.01367,-0.01367l-4.70898,3.81055c-0.45932,0.37138 -1.05207,0.53015 -1.63477,0.43945l-5.98242,-0.94727c-0.95594,-0.17052 -1.91143,0.38551 -2.23633,1.30078l-2.16016,5.63281c-0.21377,0.55133 -0.65147,0.98585 -1.20508,1.19726l-5.63672,2.16211c-0.91527,0.3249 -1.4713,1.28038 -1.30078,2.23633l0.94727,5.98242c0.0907,0.5827 -0.06807,1.17544 -0.43945,1.63477l-3.81055,4.70898l0.01367,-0.01367c-0.6225,0.73947 -0.6225,1.83866 0,2.57813l3.79688,4.68555c0.37091,0.45962 0.53071,1.05209 0.43945,1.63477l-0.94727,5.98047c-0.17052,0.95594 0.38551,1.91143 1.30078,2.23633l-0.02539,-0.00781l5.64063,2.16992c0.55005,0.21414 0.98424,0.65042 1.19531,1.20313l2.16211,5.63672c0.32535,0.91655 1.281,1.47357 2.23828,1.30078l5.97852,-0.94727c0.58333,-0.09136 1.17688,0.06766 1.63672,0.43945l4.69336,3.79883h0.00195c0.73945,0.62125 1.8372,0.62208 2.57617,0l4.69531,-3.79883c0.45933,-0.37138 1.05207,-0.53015 1.63477,-0.43945l5.97852,0.94727c0.95728,0.17279 1.91488,-0.38423 2.24023,-1.30078l2.16016,-5.63281c0.21377,-0.55133 0.65147,-0.98585 1.20508,-1.19727l5.63672,-2.16211c0.91522,-0.3249 1.4713,-1.28038 1.30078,-2.23633l-0.94727,-5.98242c-0.09047,-0.58123 0.06812,-1.17202 0.4375,-1.63086l0.00195,-0.00195v-0.00195l3.81836,-4.68359l0.00195,-0.00391c0.61955,-0.73943 0.61961,-1.83592 -0.00195,-2.57422l-3.79883,-4.69531c-0.37138,-0.45933 -0.53015,-1.05207 -0.43945,-1.63477v-0.00195l0.94727,-5.97656c0.17279,-0.95723 -0.38423,-1.91488 -1.30078,-2.24023l-5.63281,-2.16016c-0.55133,-0.21377 -0.98585,-0.65147 -1.19727,-1.20508l-2.16211,-5.63672c-0.3249,-0.91527 -1.27843,-1.4713 -2.23437,-1.30078l-5.98242,0.94727c-0.58333,0.09136 -1.17688,-0.06765 -1.63672,-0.43945l-4.69336,-3.79687c-0.36973,-0.31125 -0.82943,-0.46875 -1.28906,-0.46875zM32.01367,4.11523h0.00195c0.00517,0.00396 0.01038,0.00786 0.01563,0.01172l4.70898,3.81055c0.00065,0 0.0013,0 0.00195,0c0.89816,0.7262 2.06245,1.03997 3.20312,0.86133c0.00065,-0.00065 0.0013,-0.0013 0.00195,-0.00195l6,-0.94922c0.00652,-0.00124 0.01303,-0.00254 0.01953,-0.00391c0.00316,0.00785 0.00641,0.01567 0.00977,0.02344l2.16992,5.66016c0.41259,1.0804 1.26313,1.93724 2.3418,2.35547c0.0013,0 0.0026,0 0.00391,0l5.66016,2.17188c0.00778,0.0027 0.01559,0.0053 0.02344,0.00781c-0.00138,0.00715 -0.00268,0.01431 -0.00391,0.02148l-0.94922,6c0,0.00065 0,0.0013 0,0.00195c-0.17864,1.14067 0.13317,2.30496 0.85938,3.20312l3.81055,4.70898c0.00386,0.00525 0.00776,0.01045 0.01172,0.01563v0.00195c-0.00329,0.00388 -0.00654,0.00779 -0.00977,0.01172l-3.83008,4.70117c-0.00065,0.00065 -0.0013,0.0013 -0.00195,0.00195c-0.7262,0.89816 -1.03997,2.06441 -0.86133,3.20508c0.00065,0 0.0013,0 0.00195,0l0.94922,6c0.00122,0.00718 0.00253,0.01434 0.00391,0.02148c-0.00785,0.00316 -0.01567,0.00641 -0.02344,0.00977l-5.66016,2.16992c-1.0804,0.41259 -1.93724,1.26313 -2.35547,2.3418c0,0.0013 0,0.0026 0,0.00391l-2.17188,5.66016c-0.0027,0.00778 -0.0053,0.01559 -0.00781,0.02344c-0.00715,-0.00138 -0.01431,-0.00268 -0.02148,-0.00391l-6,-0.94922c-0.00065,0 -0.0013,0 -0.00195,0c-1.14067,-0.17864 -2.30496,0.13317 -3.20312,0.85938l-4.70898,3.81055c-0.00525,0.00386 -0.01045,0.00776 -0.01562,0.01172h-0.00195c-0.00517,-0.00396 -0.01038,-0.00786 -0.01562,-0.01172l-4.70898,-3.81055c-0.00065,0 -0.0013,0 -0.00195,0c-0.89816,-0.7262 -2.06245,-1.03802 -3.20312,-0.85937c-0.00065,0 -0.0013,0 -0.00195,0l-6,0.94922c-0.00652,0.00124 -0.01303,0.00254 -0.01953,0.00391c-0.00316,-0.00785 -0.00641,-0.01567 -0.00977,-0.02344l-2.16992,-5.66016c-0.41259,-1.0804 -1.26313,-1.93724 -2.3418,-2.35547c-0.00065,0 -0.0013,0 -0.00195,0l-5.64063,-2.16992c-0.00842,-0.00337 -0.01688,-0.00663 -0.02539,-0.00977c0.00138,-0.00715 0.00268,-0.01431 0.00391,-0.02148l0.94922,-6c0.00065,-0.00065 0.0013,-0.0013 0.00195,-0.00195c0.17864,-1.1406 -0.13513,-2.30496 -0.86133,-3.20312l-3.81055,-4.70117c-0.00387,-0.00459 -0.00777,-0.00915 -0.01172,-0.01367v-0.00195c0.00396,-0.00517 0.00786,-0.01038 0.01172,-0.01562l3.81055,-4.70898c0.7262,-0.89816 1.03997,-2.06245 0.86133,-3.20312c-0.00065,-0.00065 -0.0013,-0.0013 -0.00195,-0.00195l-0.94922,-6c-0.00122,-0.00718 -0.00253,-0.01434 -0.00391,-0.02148c0.00785,-0.00316 0.01567,-0.00641 0.02344,-0.00977l5.66016,-2.16992v0.00195c1.0804,-0.41259 1.93724,-1.26508 2.35547,-2.34375c0,-0.0013 0,-0.0026 0,-0.00391l2.17188,-5.66016c0.0027,-0.00778 0.0053,-0.01559 0.00781,-0.02344c0.00715,0.00138 0.01431,0.00268 0.02148,0.00391l6,0.94922c0.00065,0.00065 0.0013,0.0013 0.00195,0.00195c1.14064,0.17867 2.30496,-0.13513 3.20312,-0.86133l4.70898,-3.81055c0.00525,-0.00386 0.01045,-0.00776 0.01563,-0.01172zM31.89063,11.00977c-0.26522,0.00516 -0.51753,0.11547 -0.70141,0.30668c-0.18388,0.1912 -0.28426,0.44763 -0.27906,0.71285l0.00977,2c-0.00302,0.36045 0.18816,0.69464 0.50041,0.87473c0.31225,0.18009 0.69726,0.17821 1.00774,-0.00492c0.31048,-0.18313 0.49839,-0.51917 0.49185,-0.87958l-0.00977,-2c0.00266,-0.27032 -0.10422,-0.5302 -0.29629,-0.72043c-0.19207,-0.19023 -0.45297,-0.2946 -0.72325,-0.28934zM37.0332,11.65039c-0.43716,0.02567 -0.80677,0.33276 -0.91211,0.75781l-0.50977,1.93359c-0.14077,0.53449 0.1784,1.08189 0.71289,1.22266c0.53449,0.14077 1.08189,-0.1784 1.22266,-0.71289l0.50781,-1.93359c0.08696,-0.31116 0.01825,-0.64515 -0.18448,-0.89671c-0.20272,-0.25156 -0.51448,-0.3897 -0.83701,-0.37087zM26.75391,11.69336c-0.31725,-0.00605 -0.61855,0.13882 -0.81194,0.39038c-0.19339,0.25156 -0.25593,0.57998 -0.16853,0.88501l0.52344,1.92969c0.08544,0.35379 0.35633,0.63324 0.7073,0.72963c0.35097,0.09639 0.72659,-0.0055 0.98074,-0.26603c0.25415,-0.26053 0.3467,-0.63856 0.24164,-0.98704l-0.52344,-1.92969c-0.11145,-0.4355 -0.49977,-0.74312 -0.94922,-0.75195zM41.92969,13.63086c-0.36583,-0.00217 -0.70365,0.19558 -0.88086,0.51563l-0.99414,1.73633c-0.27452,0.47947 -0.10838,1.09071 0.37109,1.36523c0.47947,0.27452 1.09071,0.10838 1.36523,-0.37109l0.99414,-1.73633c0.18265,-0.30836 0.18633,-0.69089 0.00964,-1.00271c-0.17668,-0.31182 -0.50672,-0.50526 -0.86511,-0.50705zM21.87695,13.72656c-0.35253,0.01549 -0.6708,0.21562 -0.83752,0.52662c-0.16672,0.311 -0.15721,0.68684 0.02502,0.98901l1.00977,1.72461c0.17379,0.3209 0.50857,0.52166 0.8735,0.52381c0.36493,0.00216 0.70206,-0.19463 0.87963,-0.51345c0.17757,-0.31882 0.16739,-0.70905 -0.02657,-1.01818l-1.00977,-1.72656c-0.18541,-0.327 -0.53852,-0.52242 -0.91406,-0.50586zM46.03906,16.79883c-0.26036,0.00877 -0.50702,0.11879 -0.6875,0.30664l-1.40625,1.42188c-0.25951,0.25233 -0.36243,0.62519 -0.26909,0.97491c0.09334,0.34972 0.36835,0.62172 0.71909,0.71118c0.35073,0.08947 0.72243,-0.01756 0.97188,-0.27985l1.40625,-1.42187c0.29401,-0.2889 0.38066,-0.72859 0.21823,-1.10744c-0.16242,-0.37884 -0.54064,-0.61923 -0.95261,-0.60546zM17.79297,16.92773c-0.4069,0.00243 -0.77177,0.25115 -0.92274,0.62902c-0.15098,0.37787 -0.05796,0.80953 0.23524,1.09169l1.42188,1.40625c0.25233,0.25951 0.62519,0.36243 0.97491,0.26909c0.34972,-0.09334 0.62172,-0.36835 0.71118,-0.71909c0.08947,-0.35073 -0.01756,-0.72243 -0.27985,-0.97188l-1.42187,-1.40625c-0.1894,-0.19258 -0.44864,-0.30037 -0.71875,-0.29883zM49.30273,20.92188c-0.19155,-0.00566 -0.38069,0.04383 -0.54492,0.14258l-1.72461,1.00977c-0.3209,0.17379 -0.52166,0.50857 -0.52381,0.8735c-0.00216,0.36493 0.19463,0.70206 0.51345,0.87963c0.31882,0.17757 0.70905,0.16739 1.01818,-0.02657l1.72656,-1.00977c0.38988,-0.2216 0.58458,-0.67564 0.47635,-1.11084c-0.10823,-0.4352 -0.49293,-0.74515 -0.9412,-0.7583zM14.66602,21.07617c-0.46267,-0.01676 -0.87637,0.28623 -0.99999,0.73239c-0.12363,0.44617 0.07514,0.91886 0.48046,1.14261l1.73633,0.99414c0.47947,0.27452 1.09071,0.10838 1.36523,-0.37109c0.27452,-0.47947 0.10838,-1.09071 -0.37109,-1.36523l-1.73633,-0.99414c-0.1441,-0.08522 -0.30729,-0.1329 -0.47461,-0.13867zM43.94141,23.99023c-0.25992,0.0062 -0.50722,0.11339 -0.68945,0.29883l-14.35156,14.23242l-7.08398,-7.14062c-0.24978,-0.26209 -0.6217,-0.36872 -0.9724,-0.27879c-0.3507,0.08993 -0.62542,0.36238 -0.71825,0.71232c-0.09283,0.34994 0.01071,0.72274 0.27072,0.97467l7.78711,7.85156c0.38891,0.39199 1.02192,0.39461 1.41406,0.00586l15.0625,-14.93555c0.29754,-0.28607 0.38877,-0.72554 0.22968,-1.1064c-0.15909,-0.38086 -0.53581,-0.62487 -0.94843,-0.6143zM51.29688,25.73438c-0.08989,0.00102 -0.17924,0.01416 -0.26562,0.03906l-1.92969,0.52344c-0.35379,0.08544 -0.63324,0.35633 -0.72963,0.7073c-0.09639,0.35097 0.0055,0.72659 0.26603,0.98074c0.26053,0.25415 0.63856,0.3467 0.98704,0.24164l1.92969,-0.52344c0.48975,-0.12572 0.80862,-0.5972 0.74296,-1.09855c-0.06565,-0.50135 -0.49517,-0.87482 -1.00078,-0.8702zM12.62109,25.9082c-0.50038,0.0134 -0.91379,0.39466 -0.96755,0.89233c-0.05376,0.49766 0.26869,0.95843 0.75466,1.07837l1.93359,0.50977c0.53449,0.14077 1.08189,-0.1784 1.22266,-0.71289c0.14077,-0.53449 -0.1784,-1.08189 -0.71289,-1.22266l-1.93359,-0.50781c-0.09654,-0.02719 -0.19662,-0.03969 -0.29687,-0.03711zM51.9707,30.91016l-2,0.00977c-0.36045,-0.00302 -0.69464,0.18816 -0.87473,0.50041c-0.18009,0.31225 -0.17821,0.69726 0.00492,1.00774c0.18313,0.31048 0.51917,0.49839 0.87958,0.49185l2,-0.00977c0.36045,0.00302 0.69464,-0.18816 0.87473,-0.50041c0.18009,-0.31225 0.17821,-0.69726 -0.00492,-1.00774c-0.18313,-0.31048 -0.51917,-0.49839 -0.87958,-0.49185zM14.01953,31.08008l-2,0.00977c-0.36045,-0.00302 -0.69464,0.18816 -0.87473,0.50041c-0.18009,0.31225 -0.17821,0.69726 0.00492,1.00774c0.18313,0.31048 0.51917,0.49839 0.87958,0.49185l2,-0.00977c0.36045,0.00302 0.69464,-0.18816 0.87473,-0.50041c0.18009,-0.31225 0.17821,-0.69726 -0.00492,-1.00774c-0.18313,-0.31048 -0.51917,-0.49839 -0.87958,-0.49185zM49.36133,35.57617c-0.50038,0.0134 -0.91379,0.39466 -0.96755,0.89233c-0.05376,0.49766 0.26869,0.95843 0.75466,1.07837l1.93359,0.50781c0.34861,0.10061 0.72436,0.00452 0.98187,-0.25109c0.25751,-0.25561 0.35638,-0.63064 0.25836,-0.97998c-0.09802,-0.34934 -0.37756,-0.61819 -0.73046,-0.70252l-1.93359,-0.50977c-0.09664,-0.02653 -0.19671,-0.03838 -0.29687,-0.03516zM14.64063,35.73438c-0.08989,0.00102 -0.17924,0.01416 -0.26562,0.03906l-1.92969,0.52344c-0.35379,0.08544 -0.63324,0.35633 -0.72963,0.7073c-0.09639,0.35097 0.0055,0.72659 0.26603,0.98074c0.26053,0.25415 0.63856,0.3467 0.98704,0.24164l1.92969,-0.52344c0.48975,-0.12572 0.80862,-0.5972 0.74296,-1.09855c-0.06565,-0.50135 -0.49517,-0.87482 -1.00078,-0.8702zM47.64258,39.91602c-0.46267,-0.01676 -0.87637,0.28623 -0.99999,0.7324c-0.12363,0.44617 0.07514,0.91886 0.48046,1.1426l1.73633,0.99414c0.47947,0.27452 1.09071,0.10838 1.36523,-0.37109c0.27452,-0.47947 0.10838,-1.09071 -0.37109,-1.36523l-1.73633,-0.99414c-0.1441,-0.08522 -0.30729,-0.1329 -0.47461,-0.13867zM16.50195,40.05664c-0.19089,-0.00529 -0.3793,0.04419 -0.54297,0.14258l-1.72656,1.00977c-0.31081,0.17921 -0.50182,0.51117 -0.50055,0.86994c0.00127,0.35877 0.19462,0.68938 0.50669,0.86638c0.31207,0.177 0.69505,0.17328 1.00362,-0.00976l1.72461,-1.00977c0.38988,-0.2216 0.58458,-0.67564 0.47635,-1.11084c-0.10823,-0.4352 -0.49293,-0.74514 -0.94119,-0.7583zM44.75391,43.64648c-0.4069,0.00243 -0.77177,0.25115 -0.92274,0.62902c-0.15098,0.37787 -0.05796,0.80953 0.23524,1.09169l1.42188,1.40625c0.25233,0.25951 0.62519,0.36243 0.97491,0.26909c0.34972,-0.09334 0.62172,-0.36835 0.71118,-0.71909c0.08947,-0.35073 -0.01756,-0.72243 -0.27985,-0.97188l-1.42187,-1.40625c-0.1894,-0.19258 -0.44864,-0.30037 -0.71875,-0.29883zM19.32031,43.75977c-0.26036,0.00877 -0.50702,0.11879 -0.6875,0.30664l-1.40625,1.42188c-0.25951,0.25233 -0.36243,0.62519 -0.26909,0.97491c0.09334,0.34972 0.36835,0.62172 0.71909,0.71118c0.35073,0.08947 0.72243,-0.01756 0.97188,-0.27985l1.40625,-1.42187c0.29401,-0.2889 0.38065,-0.72859 0.21823,-1.10743c-0.16242,-0.37884 -0.54064,-0.61923 -0.95261,-0.60546zM41.01172,46.52539c-0.35253,0.01549 -0.6708,0.21562 -0.83752,0.52661c-0.16672,0.311 -0.15721,0.68684 0.02502,0.98901l1.00977,1.72656c0.17921,0.31081 0.51117,0.50182 0.86994,0.50055c0.35877,-0.00127 0.68938,-0.19462 0.86638,-0.50669c0.177,-0.31207 0.17328,-0.69505 -0.00976,-1.00362l-1.00977,-1.72461c-0.18489,-0.32776 -0.5381,-0.52399 -0.91406,-0.50781zM23.08984,46.60742c-0.36583,-0.00217 -0.70365,0.19558 -0.88086,0.51563l-0.99414,1.73633c-0.27452,0.47947 -0.10838,1.09071 0.37109,1.36523c0.47947,0.27452 1.09071,0.10838 1.36523,-0.37109l0.99414,-1.73633c0.18265,-0.30836 0.18633,-0.69089 0.00964,-1.00271c-0.17668,-0.31182 -0.50672,-0.50526 -0.86511,-0.50705zM36.75391,48.34961c-0.31725,-0.00605 -0.61855,0.13882 -0.81194,0.39038c-0.19339,0.25156 -0.25593,0.57998 -0.16853,0.88501l0.52344,1.92969c0.08544,0.35379 0.35633,0.63324 0.7073,0.72963c0.35097,0.09639 0.72659,-0.0055 0.98074,-0.26603c0.25415,-0.26053 0.3467,-0.63856 0.24164,-0.98704l-0.52344,-1.92969c-0.11145,-0.4355 -0.49977,-0.74312 -0.94922,-0.75195zM27.36719,48.39063c-0.4379,0.02484 -0.80851,0.3321 -0.91406,0.75781l-0.50781,1.93359c-0.10061,0.34861 -0.00452,0.72436 0.25109,0.98187c0.25561,0.25751 0.63064,0.35638 0.97998,0.25836c0.34934,-0.09802 0.61819,-0.37756 0.70252,-0.73046l0.50977,-1.93359c0.08696,-0.31115 0.01825,-0.64515 -0.18448,-0.89671c-0.20272,-0.25156 -0.51448,-0.3897 -0.83701,-0.37087zM32.06055,48.96289c-0.55153,0.01074 -0.99021,0.46603 -0.98047,1.01758l0.00977,2c-0.00302,0.36045 0.18816,0.69464 0.50041,0.87473c0.31225,0.18009 0.69726,0.17821 1.00774,-0.00492c0.31048,-0.18313 0.49839,-0.51917 0.49185,-0.87958l-0.00977,-2c0.00213,-0.26998 -0.10498,-0.52935 -0.29699,-0.71915c-0.19201,-0.1898 -0.4526,-0.29391 -0.72254,-0.28866z"></path></g></g></svg>